<?xml version="1.0" encoding="utf-8"?>
<!-- Generator: Adobe Illustrator 15.1.0, SVG Export Plug-In . SVG Version: 6.00 Build 0)  -->
<!DOCTYPE svg PUBLIC "-//W3C//DTD SVG 1.1//EN" "http://www.w3.org/Graphics/SVG/1.1/DTD/svg11.dtd">
<svg version="1.1" id="Layer_1" xmlns="http://www.w3.org/2000/svg" xmlns:xlink="http://www.w3.org/1999/xlink" x="0px" y="0px"
	 width="17.167px" height="16px" viewBox="0 0 17.167 16" enable-background="new 0 0 17.167 16" xml:space="preserve">
<g>
	<path fill="#333C98" d="M16.274,11.575c-0.02-0.041-0.036-0.074-0.053-0.102c-0.27-0.485-0.785-1.082-1.547-1.788l-0.016-0.017
		l-0.007-0.007l-0.009-0.009h-0.008c-0.347-0.33-0.564-0.551-0.656-0.664c-0.167-0.216-0.204-0.435-0.112-0.656
		c0.064-0.167,0.307-0.521,0.728-1.061c0.222-0.285,0.396-0.516,0.526-0.688c0.934-1.241,1.338-2.034,1.215-2.38l-0.049-0.081
		c-0.033-0.048-0.116-0.093-0.252-0.134c-0.134-0.04-0.307-0.047-0.519-0.02l-2.329,0.017c-0.039-0.015-0.093-0.014-0.163,0.003
		s-0.104,0.025-0.104,0.025l-0.041,0.02L12.847,4.06c-0.028,0.017-0.058,0.045-0.09,0.085c-0.033,0.041-0.06,0.088-0.081,0.142
		c-0.254,0.653-0.543,1.261-0.866,1.821c-0.199,0.336-0.383,0.624-0.551,0.87c-0.167,0.246-0.308,0.427-0.421,0.542
		c-0.113,0.117-0.215,0.21-0.308,0.279c-0.092,0.07-0.162,0.101-0.21,0.09c-0.049-0.012-0.095-0.021-0.138-0.032
		C10.108,7.808,10.046,7.741,10,7.657S9.923,7.47,9.908,7.342C9.891,7.216,9.882,7.105,9.879,7.014
		C9.876,6.923,9.877,6.793,9.883,6.626s0.008-0.281,0.008-0.34c0-0.206,0.004-0.429,0.013-0.668c0.008-0.24,0.015-0.431,0.02-0.571
		c0.006-0.141,0.008-0.288,0.008-0.444c0-0.157-0.009-0.279-0.027-0.369c-0.019-0.089-0.047-0.175-0.085-0.26
		C9.782,3.891,9.726,3.826,9.653,3.78S9.49,3.697,9.381,3.672C9.096,3.605,8.731,3.57,8.289,3.566
		C7.285,3.555,6.639,3.62,6.353,3.76C6.241,3.82,6.138,3.9,6.045,4.003c-0.097,0.118-0.108,0.185-0.04,0.193
		c0.324,0.05,0.554,0.165,0.688,0.349l0.05,0.098C6.78,4.712,6.818,4.837,6.856,5.015C6.893,5.192,6.918,5.39,6.929,5.605
		c0.026,0.394,0.026,0.73,0,1.012C6.902,6.898,6.876,7.116,6.851,7.272C6.828,7.429,6.791,7.557,6.743,7.653
		c-0.05,0.098-0.081,0.157-0.098,0.179c-0.016,0.021-0.029,0.034-0.04,0.04c-0.07,0.027-0.144,0.041-0.219,0.041
		S6.219,7.875,6.111,7.799C6.002,7.724,5.891,7.62,5.776,7.487C5.659,7.355,5.528,7.17,5.382,6.933
		C5.238,6.695,5.085,6.415,4.929,6.091L4.8,5.856C4.718,5.705,4.609,5.485,4.467,5.197c-0.141-0.29-0.264-0.568-0.372-0.839
		C4.053,4.246,3.987,4.16,3.901,4.1l-0.04-0.024c-0.027-0.021-0.07-0.044-0.13-0.068C3.672,3.982,3.61,3.964,3.544,3.954
		L1.327,3.971c-0.226,0-0.381,0.051-0.461,0.153L0.833,4.172c-0.017,0.027-0.024,0.07-0.024,0.131c0,0.059,0.016,0.132,0.049,0.218
		C1.18,5.281,1.533,6.016,1.914,6.723c0.381,0.706,0.712,1.276,0.991,1.708c0.28,0.432,0.567,0.839,0.858,1.222
		c0.292,0.383,0.484,0.628,0.579,0.736c0.094,0.108,0.169,0.188,0.222,0.243l0.203,0.193c0.13,0.13,0.32,0.285,0.57,0.466
		c0.252,0.182,0.529,0.358,0.834,0.534c0.306,0.176,0.661,0.318,1.064,0.429c0.404,0.111,0.799,0.155,1.182,0.135h0.931
		c0.189-0.017,0.333-0.076,0.43-0.179l0.032-0.04c0.022-0.032,0.042-0.083,0.062-0.15c0.019-0.067,0.027-0.142,0.027-0.223
		c-0.005-0.231,0.013-0.44,0.053-0.628c0.04-0.185,0.086-0.325,0.138-0.42s0.109-0.174,0.175-0.238
		c0.064-0.065,0.11-0.104,0.137-0.117c0.028-0.014,0.049-0.023,0.065-0.029c0.129-0.043,0.282-0.001,0.457,0.125
		c0.175,0.128,0.341,0.284,0.494,0.471c0.153,0.186,0.338,0.396,0.554,0.627c0.217,0.232,0.405,0.405,0.567,0.518l0.162,0.098
		c0.107,0.064,0.247,0.125,0.421,0.178c0.172,0.055,0.322,0.068,0.453,0.042l2.072-0.033c0.205,0,0.364-0.034,0.478-0.102
		s0.18-0.142,0.202-0.222c0.022-0.082,0.022-0.174,0.005-0.277C16.312,11.687,16.292,11.615,16.274,11.575z"/>
</g>
</svg>
