<?xml version="1.0" encoding="utf-8"?>
<!-- Generator: Adobe Illustrator 16.0.0, SVG Export Plug-In . SVG Version: 6.00 Build 0)  -->
<!DOCTYPE svg PUBLIC "-//W3C//DTD SVG 1.1//EN" "http://www.w3.org/Graphics/SVG/1.1/DTD/svg11.dtd">
<svg version="1.1" id="Layer_1" xmlns="http://www.w3.org/2000/svg" xmlns:xlink="http://www.w3.org/1999/xlink" x="0px" y="0px"
	 width="201.5px" height="150px" viewBox="0 320.5 201.5 150" enable-background="new 0 320.5 201.5 150" xml:space="preserve">
<path fill="#C2C2C2" d="M191.039,349.084c-2.25-8.355-8.837-14.943-17.192-17.192c-15.264-4.177-76.319-4.177-76.319-4.177
	s-61.055,0-76.319,4.017c-8.194,2.25-14.942,8.998-17.192,17.353C0,364.348,0,396,0,396s0,31.813,4.017,46.916
	c2.25,8.355,8.837,14.942,17.192,17.192c15.425,4.177,76.319,4.177,76.319,4.177s61.056,0,76.319-4.017
	c8.355-2.249,14.942-8.837,17.192-17.191c4.017-15.264,4.017-46.917,4.017-46.917S195.217,364.348,191.039,349.084L191.039,349.084z
	"/>
<path fill="#FFFFFF" d="M78.086,425.242L128.859,396l-50.772-29.242V425.242z"/>
</svg>
